# xmcd
# 
# Track frame offsets:
#     150
#     15161
#     33091
#     49761
#     77689
#     95807
#     116194
#     137409
#     161145
#     189102
# 
# Disc length: 2829
# 
# Revision: 1
# Processed by: cddbd v1.5.2PL0 Copyright (c) Steve Scherf et al.
# Submitted via: fre:ac v1.0.31
# 
DISCID=720b0b0a
DTITLE=星空凛 (飯田里穂) - ラブライブ! Solo Live! III from μ's 星空凛 Memories with Rin [Disc 3]
DYEAR=0
DGENRE=
TTITLE0=微熱からMystery
TTITLE1=キミのくせに!
TTITLE2=秋のあなたの空遠く
TTITLE3=ふたりハピネス
TTITLE4=思い出以上になりたくて
TTITLE5=春情ロマンティック
TTITLE6=HEART to HEART!
TTITLE7=嵐のなかの恋だから
TTITLE8=MOMENT RING
TTITLE9=さようならへさよなら!
EXTD=
EXTT0=
EXTT1=
EXTT2=
EXTT3=
EXTT4=
EXTT5=
EXTT6=
EXTT7=
EXTT8=
EXTT9=
PLAYORDER=
